<svg width="373" height="242" viewBox="0 0 373 242" fill="none" xmlns="http://www.w3.org/2000/svg">
<path d="M40.1345 237.724C40.7967 237.891 41.3666 238.461 41.3666 239.258C41.3666 240.322 40.6961 240.967 39.2294 240.967H37V235.101H39.1372C40.3441 235.101 40.9475 235.779 40.9475 236.559C40.9475 237.171 40.562 237.548 40.1345 237.724ZM39.045 236.064H38.0979V237.397H39.045C39.5982 237.397 39.858 237.12 39.858 236.727C39.858 236.307 39.5814 236.064 39.045 236.064ZM39.1791 240.004C39.925 240.004 40.2686 239.693 40.2686 239.132C40.2686 238.646 39.925 238.285 39.1456 238.285H38.0979V240.004H39.1791ZM49.0605 239.953H51.6167V240.967H48.8928H47.9625V235.101H49.0605H51.5413V236.115H49.0605V237.523H50.9462V238.512H49.0605V239.953ZM59.3944 239.953H61.9506V240.967H59.2268H58.2965V235.101H59.3944H61.8752V236.115H59.3944V237.523H61.2802V238.512H59.3944V239.953ZM73.173 240.967H72.008L70.7006 238.973H70.6503H69.7283V240.967H68.6304V235.101H70.6503C71.9661 235.101 72.7958 235.905 72.7958 237.07C72.7958 237.883 72.3935 238.487 71.7063 238.78L73.173 240.967ZM69.7283 236.115V238.026H70.5916C71.2537 238.026 71.6979 237.741 71.6979 237.07C71.6979 236.408 71.2537 236.115 70.5916 236.115H69.7283ZM89.9353 235C90.9326 235 91.5947 235.637 91.8881 236.215L91.0751 236.693C90.765 236.232 90.4298 235.972 89.9353 235.972C89.4659 235.972 89.1307 236.249 89.1307 236.626C89.1307 236.986 89.3486 237.196 89.8515 237.38L90.2538 237.531C91.5025 237.975 92.0473 238.52 92.0473 239.358C92.0473 240.498 90.9662 241.093 89.9688 241.093C88.9212 241.093 88.0998 240.473 87.8316 239.652L88.6781 239.207C88.8876 239.677 89.2815 240.096 89.9688 240.096C90.4884 240.096 90.9075 239.844 90.9075 239.375C90.9075 238.897 90.6058 238.688 89.952 238.445L89.5749 238.311C88.7032 237.992 88.0411 237.556 88.0411 236.584C88.0411 235.662 88.8876 235 89.9353 235ZM103.563 235.101L101.342 238.42V240.967H100.244V238.42L98.0231 235.101H99.2635L100.789 237.422L102.314 235.101H103.563ZM111.559 235C112.556 235 113.218 235.637 113.511 236.215L112.698 236.693C112.388 236.232 112.053 235.972 111.559 235.972C111.089 235.972 110.754 236.249 110.754 236.626C110.754 236.986 110.972 237.196 111.475 237.38L111.877 237.531C113.126 237.975 113.671 238.52 113.671 239.358C113.671 240.498 112.589 241.093 111.592 241.093C110.544 241.093 109.723 240.473 109.455 239.652L110.301 239.207C110.511 239.677 110.905 240.096 111.592 240.096C112.112 240.096 112.531 239.844 112.531 239.375C112.531 238.897 112.229 238.688 111.575 238.445L111.198 238.311C110.327 237.992 109.664 237.556 109.664 236.584C109.664 235.662 110.511 235 111.559 235ZM123.954 235.101V236.115H122.446V240.967H121.348V236.115H119.848V235.101H123.954ZM131.69 239.953H134.246V240.967H131.522H130.592V235.101H131.69H134.171V236.115H131.69V237.523H133.576V238.512H131.69V239.953ZM147.17 235.101V240.967H146.039V237.565L144.513 240.967H143.575L142.058 237.581V240.967H140.926V235.101H142.016L144.052 239.492L146.081 235.101H147.17ZM166.229 235.101V236.115H164.72V240.967H163.622V236.115H162.122V235.101H166.229ZM175.775 235.017C177.384 235.017 178.809 236.257 178.809 238.034C178.809 239.811 177.384 241.051 175.775 241.051C174.166 241.051 172.741 239.811 172.741 238.034C172.741 236.257 174.166 235.017 175.775 235.017ZM175.775 240.02C176.797 240.02 177.661 239.191 177.661 238.034C177.661 236.877 176.797 236.048 175.775 236.048C174.744 236.048 173.881 236.877 173.881 238.034C173.881 239.191 174.744 240.02 175.775 240.02ZM200.047 235.101V240.967H198.915V237.565L197.39 240.967H196.451L194.934 237.581V240.967H193.803V235.101H194.892L196.929 239.492L198.957 235.101H200.047ZM211.554 240.967L211.068 239.836H208.168L207.682 240.967H206.517L209.132 235.101H210.112L212.719 240.967H211.554ZM208.554 238.939H210.682L209.618 236.458L208.554 238.939ZM223.086 235.101H224.184V240.967H223.346L220.287 237.104V240.967H219.189V235.101H220.036L223.086 238.973V235.101ZM235.692 240.967L235.206 239.836H232.306L231.82 240.967H230.655L233.269 235.101H234.25L236.857 240.967H235.692ZM232.691 238.939H234.82L233.756 236.458L232.691 238.939ZM248.858 237.883C249.085 239.836 247.802 241.051 246.235 241.051C244.592 241.051 243.201 239.811 243.201 238.034C243.201 236.257 244.626 235.017 246.235 235.017C246.998 235.017 247.685 235.268 248.196 235.712L247.534 236.467C247.199 236.215 246.755 236.048 246.302 236.048C245.204 236.048 244.341 236.877 244.341 238.034C244.341 239.191 245.179 240.02 246.235 240.02C247.073 240.02 247.668 239.685 247.844 238.822H246.386V237.883H248.858ZM256.653 239.953H259.209V240.967H256.485H255.555V235.101H256.653H259.134V236.115H256.653V237.523H258.539V238.512H256.653V239.953ZM277.111 235.017C278.72 235.017 280.145 236.257 280.145 238.034C280.145 239.811 278.72 241.051 277.111 241.051C275.502 241.051 274.077 239.811 274.077 238.034C274.077 236.257 275.502 235.017 277.111 235.017ZM277.111 240.02C278.134 240.02 278.997 239.191 278.997 238.034C278.997 236.877 278.134 236.048 277.111 236.048C276.08 236.048 275.217 236.877 275.217 238.034C275.217 239.191 276.08 240.02 277.111 240.02ZM291.368 240.967H290.203L288.895 238.973H288.845H287.923V240.967H286.825V235.101H288.845C290.161 235.101 290.99 235.905 290.99 237.07C290.99 237.883 290.588 238.487 289.901 238.78L291.368 240.967ZM287.923 236.115V238.026H288.786C289.448 238.026 289.892 237.741 289.892 237.07C289.892 236.408 289.448 236.115 288.786 236.115H287.923ZM299.933 235.101C301.609 235.101 302.9 236.4 302.9 238.009C302.9 239.668 301.609 240.967 299.933 240.967H297.922V235.101H299.933ZM299.925 239.928C301.115 239.928 301.785 239.065 301.785 238.009C301.785 237.003 301.115 236.14 299.925 236.14H299.02V239.928H299.925ZM310.636 239.953H313.192V240.967H310.468H309.538V235.101H310.636H313.117V236.115H310.636V237.523H312.522V238.512H310.636V239.953ZM324.414 240.967H323.249L321.942 238.973H321.892H320.97V240.967H319.872V235.101H321.892C323.207 235.101 324.037 235.905 324.037 237.07C324.037 237.883 323.635 238.487 322.948 238.78L324.414 240.967ZM320.97 236.115V238.026H321.833C322.495 238.026 322.939 237.741 322.939 237.07C322.939 236.408 322.495 236.115 321.833 236.115H320.97ZM332.695 235C333.692 235 334.354 235.637 334.648 236.215L333.835 236.693C333.525 236.232 333.189 235.972 332.695 235.972C332.226 235.972 331.89 236.249 331.89 236.626C331.89 236.986 332.108 237.196 332.611 237.38L333.013 237.531C334.262 237.975 334.807 238.52 334.807 239.358C334.807 240.498 333.726 241.093 332.728 241.093C331.681 241.093 330.859 240.473 330.591 239.652L331.438 239.207C331.647 239.677 332.041 240.096 332.728 240.096C333.248 240.096 333.667 239.844 333.667 239.375C333.667 238.897 333.365 238.688 332.712 238.445L332.335 238.311C331.463 237.992 330.801 237.556 330.801 236.584C330.801 235.662 331.647 235 332.695 235Z" fill="#111111"/>
<path d="M22.7499 192.716C28.0878 193.987 32.2184 198.563 32.2184 204.409C32.2184 212.352 27.1346 217.246 16.0774 217.246H0V172.763H15.7597C24.7198 172.763 29.1681 177.846 29.1681 183.693C29.1681 188.141 26.4991 191.255 22.7499 192.716ZM15.1877 178.927H6.99018V190.556H15.1877C19.7631 190.556 22.2415 188.141 22.2415 184.709C22.2415 181.087 19.7631 178.927 15.1877 178.927ZM15.7597 211.081C22.305 211.081 25.2282 208.412 25.2282 203.646C25.2282 199.579 22.305 196.275 15.7597 196.275H6.99018V211.081H15.7597ZM53.7608 183.629C61.2594 183.629 71.4269 189.348 69.8382 203.202H43.5297C44.5465 209.111 49.249 212.035 54.5869 212.035C58.9717 212.035 61.3229 210.891 63.7377 208.984L67.6141 212.67C64.6909 215.975 60.4968 217.881 54.3963 217.881C46.0081 217.881 36.6667 212.162 36.6667 200.787C36.6667 189.348 46.2623 183.629 53.7608 183.629ZM53.7608 189.539C49.5032 189.539 44.7371 192.399 43.5933 198.181H63.8013C63.0387 192.399 58.0185 189.539 53.7608 189.539ZM90.9359 183.629C98.4344 183.629 108.602 189.348 107.013 203.202H80.7048C81.7215 209.111 86.424 212.035 91.762 212.035C96.1467 212.035 98.498 210.891 100.913 208.984L104.789 212.67C101.866 215.975 97.6718 217.881 91.5713 217.881C83.1831 217.881 73.8417 212.162 73.8417 200.787C73.8417 189.348 83.4373 183.629 90.9359 183.629ZM90.9359 189.539C86.6782 189.539 81.9122 192.399 80.7683 198.181H100.976C100.214 192.399 95.1935 189.539 90.9359 189.539ZM131.67 183.693C132.369 183.693 133.004 183.693 133.639 183.82V190.365C133.004 190.238 132.369 190.238 131.86 190.238C125.633 190.238 120.549 194.686 119.786 201.676V217.246H112.923V184.201H119.786V192.653C121.184 187.76 125.442 183.693 131.67 183.693ZM172.467 172C179.775 172 184.795 176.702 186.892 181.278L181.681 184.265C179.457 180.515 176.597 178.228 172.467 178.228C168.336 178.228 165.413 180.642 165.413 183.947C165.413 187.061 167.383 188.967 171.641 190.556L174.754 191.7C183.587 194.94 188.099 198.753 188.099 205.426C188.099 213.623 180.283 218.199 172.721 218.199C164.968 218.199 158.741 213.56 156.834 207.269L162.299 204.473C163.888 208.54 167.319 211.844 172.721 211.844C177.169 211.844 180.855 209.493 180.855 205.489C180.855 201.232 177.995 199.516 172.912 197.609L169.861 196.466C163.189 193.987 158.486 190.619 158.486 183.693C158.486 176.957 164.587 172 172.467 172ZM220.381 184.137H227.244L207.1 229.319H200.237L206.21 216.165L191.912 184.137H198.775L209.578 208.667L220.381 184.137ZM245.737 193.034C244.593 190.492 242.75 189.158 240.271 189.158C237.73 189.158 235.823 190.683 235.823 192.78C235.823 194.686 236.903 196.021 239.572 196.974L243.195 198.245C248.406 200.088 252.727 202.058 252.727 208.095C252.727 214.513 246.436 217.945 240.335 217.945C234.489 217.945 229.151 214.577 227.88 208.921L233.345 207.269C234.298 210.255 236.776 212.416 240.335 212.416C243.258 212.416 245.927 210.7 245.927 208.095C245.927 205.998 244.466 204.727 241.67 203.71L237.92 202.375C231.82 200.215 229.151 196.91 229.151 192.716C229.151 187.188 234.107 183.629 240.017 183.629C245.737 183.629 249.676 186.743 251.456 191.445L245.737 193.034ZM274.968 189.92H267.978V208.412C267.978 210.192 268.613 211.59 270.647 211.59C272.363 211.59 273.57 211.272 274.968 210.7V216.483C273.57 217.182 271.727 217.627 268.868 217.627C264.737 217.627 261.115 215.975 261.115 208.667V189.92H256.54V184.201H261.115V176.448H267.978V184.201H274.968V189.92ZM296.511 183.629C304.009 183.629 314.177 189.348 312.588 203.202H286.28C287.296 209.111 291.999 212.035 297.337 212.035C301.722 212.035 304.073 210.891 306.488 208.984L310.364 212.67C307.441 215.975 303.247 217.881 297.146 217.881C288.758 217.881 279.416 212.162 279.416 200.787C279.416 189.348 289.012 183.629 296.511 183.629ZM296.511 189.539C292.253 189.539 287.487 192.399 286.343 198.181H306.551C305.789 192.399 300.768 189.539 296.511 189.539ZM359.613 183.693C365.968 183.693 372.259 187.76 372.259 198.499V217.246H365.396V198.499C365.396 192.843 362.536 189.73 357.706 189.73C352.686 189.73 349.636 193.924 348.81 198.054V217.246H341.947V198.499C341.947 192.843 338.452 189.73 334.194 189.73C328.92 189.73 326.06 193.924 325.361 198.054V217.246H318.498V184.201H325.361V191.382C325.615 189.285 328.856 183.693 335.783 183.693C340.295 183.693 345.251 186.171 347.539 191.636C348.556 188.776 352.496 183.693 359.613 183.693Z" fill="#111111"/>
<path d="M167.487 125.256C167.492 125.43 167.566 125.596 167.688 125.719C167.701 125.731 167.713 125.744 167.725 125.753C174.616 131.683 183.693 134.123 192.632 132.448C192.823 132.414 192.987 132.301 193.093 132.137C193.196 131.973 193.225 131.774 193.174 131.588L186.653 107.245C186.586 107.005 186.403 106.821 186.162 106.755C185.924 106.691 185.669 106.76 185.493 106.934L167.688 124.738C167.554 124.873 167.48 125.062 167.487 125.256Z" fill="#111111"/>
<path d="M159.201 94.0542C159.284 94.1376 159.395 94.2014 159.512 94.2333L183.835 100.752C184.073 100.813 184.328 100.744 184.505 100.57C184.681 100.396 184.747 100.139 184.684 99.9007L178.168 75.578C178.121 75.3916 177.989 75.2322 177.822 75.1464C177.65 75.0532 177.449 75.0409 177.268 75.1023C172.988 76.6007 169.216 78.9623 166.055 82.1234C162.894 85.2845 160.535 89.0538 159.037 93.3332C158.973 93.5147 158.988 93.7158 159.078 93.8875C159.11 93.9488 159.152 94.0052 159.201 94.0542Z" fill="#111111"/>
<path d="M164.579 122.612C164.702 122.735 164.868 122.808 165.043 122.813C165.234 122.82 165.423 122.747 165.558 122.612L183.362 104.808C183.541 104.634 183.61 104.379 183.546 104.141C183.482 103.9 183.296 103.716 183.055 103.65L158.711 97.1269C158.524 97.0754 158.325 97.1048 158.161 97.2078C157.999 97.3133 157.884 97.4776 157.85 97.6688C156.175 106.608 158.615 115.686 164.545 122.575C164.555 122.587 164.569 122.6 164.579 122.612Z" fill="#111111"/>
<path d="M230.425 12.4979C230.428 12.4734 230.707 9.84199 232.39 8.40734C233.385 7.55637 234.771 7.2253 236.632 7.39451L260.241 9.52808L260.904 2.20037L237.294 0.0668045C232.493 -0.357457 229.368 1.31997 227.615 2.81101C224.039 5.86177 223.274 10.2859 223.122 11.642L220.577 22.3712C208.508 19.3425 191.832 17.7901 175.259 17.7901C143.825 17.7901 112 23.3693 112 34.0347V34.0372C112 34.253 112.015 34.4688 112.039 34.6821L119.357 144.301C119.357 154.049 145.154 165.956 175.259 165.956C205.367 165.956 231.161 154.049 231.156 144.441L238.479 34.6821C238.506 34.4688 238.518 34.253 238.518 34.0372V34.0347C238.518 30.1943 234.376 27.016 227.627 24.5195L230.337 13.0963L230.425 12.4979ZM146.142 114.89C141.809 115.309 137.407 113.352 134.937 109.411C132.323 105.24 132.625 100.07 135.293 96.281C139.866 95.533 144.651 97.517 147.263 101.691C149.73 105.632 149.57 110.448 147.302 114.164C144.418 109.683 141.519 105.495 138.711 101.74C140.864 105.902 143.371 110.338 146.142 114.89ZM213.617 51.7114L211.473 60.7509C207.039 61.5381 201.939 62.188 196.315 62.654C196.215 59.5198 194.579 56.4985 191.673 54.8088L183.651 50.1419C183.842 50.137 184.034 50.1346 184.225 50.1272C184.269 50.1247 184.311 50.1248 184.355 50.1223C185.792 50.0733 187.224 50.0095 188.647 49.9359C188.688 49.9335 188.732 49.931 188.774 49.9286C193.875 49.6637 198.834 49.237 203.555 48.6754L213.617 51.7114ZM175.119 63.4902C173.187 63.4902 171.291 63.4632 169.413 63.4265L173.383 50.267C173.626 50.2694 173.871 50.2719 174.114 50.2743L189.206 59.0539C190.246 59.6571 190.986 60.6307 191.293 61.7932C191.398 62.1929 191.428 62.5975 191.423 63.0022C186.278 63.3136 180.809 63.4902 175.119 63.4902ZM176.689 46.093L174.948 45.0802L175.041 44.7712C175.61 42.8878 177.38 41.5709 179.345 41.5709C179.781 41.5709 180.22 41.6371 180.647 41.7646L192.99 45.4873C187.931 45.8478 182.484 46.0612 176.689 46.093ZM168.289 50.1763L164.339 63.272C155.255 62.9164 147.003 62.1218 140.224 61.0035L147.363 48.7293C153.972 49.5018 161.072 49.9874 168.289 50.1763ZM149.661 44.7835L151.196 42.1447C152.001 40.764 153.494 39.9057 155.093 39.9057C155.883 39.9057 156.66 40.1166 157.349 40.5188L166.693 45.9557C160.542 45.7522 154.838 45.35 149.661 44.7835ZM154.387 97.3502C154.49 96.7739 154.617 96.2098 154.747 95.6433C154.799 95.4202 154.841 95.1946 154.897 94.9763L154.89 94.9714C155.096 94.1523 155.331 93.3455 155.601 92.5509L134.292 80.1541C133.252 79.5484 132.509 78.5772 132.203 77.4148C131.896 76.2499 132.06 75.0385 132.664 74.0011L136.995 66.5581C143.883 67.8971 152.668 68.8756 162.512 69.3318L159.704 78.641C159.142 80.4975 159.181 82.4348 159.77 84.2422C161.241 82.1234 162.963 80.1983 164.876 78.4767L167.578 69.5182C170.045 69.5844 172.561 69.6212 175.124 69.6212C179.725 69.6212 184.188 69.5083 188.45 69.2999L188.075 69.9473C189.897 69.9988 191.683 70.1803 193.421 70.5138L194.339 68.9394C200.089 68.5151 205.362 67.9045 209.96 67.1492L206.684 80.9634C206.65 80.8359 206.625 80.6985 206.517 80.6127C199.626 74.6829 190.55 72.2428 181.608 73.9202C181.417 73.9545 181.253 74.0698 181.15 74.2292C181.047 74.3935 181.017 74.5921 181.066 74.7785L187.59 99.1233C187.622 99.2434 187.685 99.3513 187.769 99.4347C187.852 99.5181 187.96 99.5819 188.08 99.6138C188.318 99.6775 188.573 99.6088 188.75 99.4347L206.515 81.6697L205.193 87.2415L190.876 101.558C190.699 101.735 190.633 101.99 190.697 102.23C190.729 102.351 190.792 102.456 190.876 102.542C190.959 102.625 191.067 102.689 191.187 102.721L200.904 105.325L200.21 108.249L190.407 105.622C190.17 105.558 189.912 105.627 189.738 105.801C189.561 105.978 189.495 106.233 189.559 106.471L195.432 128.387L194.324 133.059C194.113 133.947 194.258 134.83 194.645 135.583C192.225 136.142 189.716 136.468 187.124 136.468C168.741 136.468 153.84 121.567 153.84 103.184C153.835 101.186 154.039 99.2434 154.387 97.3502ZM202.988 128.387C204.864 127.213 206.601 125.832 208.182 124.25C211.341 121.087 213.703 117.315 215.201 113.036C215.265 112.854 215.25 112.653 215.157 112.481C215.069 112.32 214.912 112.187 214.725 112.136L207.314 110.149L208.008 107.226L215.527 109.242C215.714 109.293 215.912 109.264 216.076 109.158C216.238 109.053 216.354 108.891 216.388 108.7C217.754 101.426 216.349 94.0787 212.599 87.8742L213.7 83.2294C213.754 83.3005 213.815 83.3643 213.867 83.4379C213.955 83.558 214.031 83.6856 214.119 83.8057C214.598 84.4703 215.056 85.1521 215.485 85.8535C218.585 90.9029 220.402 96.8205 220.402 103.182C220.402 116.248 212.857 127.522 201.902 132.971L202.988 128.387ZM116.316 34.5595C116.265 34.3903 116.176 34.2186 116.174 34.0543L116.171 34.0224C116.208 29.1005 139.217 21.9616 175.259 21.9616C194.084 21.9616 209.305 23.9137 219.603 26.4765L215.812 42.4562C215.304 42.5616 214.836 42.6744 214.308 42.7774C214.294 42.7799 214.281 42.7823 214.267 42.7848C211.638 43.2998 208.763 43.7706 205.686 44.19L182.064 37.0634C181.179 36.7961 180.264 36.6612 179.345 36.6612C175.517 36.6612 172.066 39.0645 170.651 42.5763L159.814 36.2713C158.379 35.435 156.746 34.9936 155.093 34.9936C151.753 34.9936 148.636 36.7863 146.959 39.6703L144.364 44.1311C141.465 43.7289 138.76 43.2753 136.266 42.7872C136.205 42.775 136.149 42.7627 136.087 42.7505C134.758 42.488 133.488 42.2158 132.279 41.9338C132.053 41.8799 131.85 41.8259 131.626 41.7719C130.618 41.5292 129.64 41.2839 128.723 41.0313C128.345 40.9259 128.009 40.818 127.649 40.7125C126.947 40.5065 126.246 40.3005 125.603 40.0921C125.11 39.9302 124.669 39.7635 124.213 39.5991C123.774 39.4422 123.32 39.2852 122.918 39.1258C122.369 38.91 121.881 38.6893 121.395 38.4711C121.152 38.3607 120.887 38.2528 120.662 38.1424C120.137 37.8874 119.678 37.6323 119.244 37.3773C119.112 37.3013 118.962 37.2228 118.84 37.1468C118.411 36.8795 118.055 36.6121 117.726 36.3473C117.643 36.2811 117.542 36.2124 117.466 36.1462C117.182 35.8961 116.973 35.6508 116.782 35.4056C116.716 35.3173 116.628 35.229 116.571 35.1432C116.441 34.9494 116.382 34.7532 116.316 34.5595ZM226.992 144.301C226.992 150.133 204.626 161.789 175.257 161.789C145.889 161.789 123.524 150.133 123.519 144.161L116.606 40.536C116.618 40.5433 116.633 40.5507 116.645 40.558C121.851 43.9129 131.04 46.4192 142.091 48.0451L140.036 51.5766C132.615 52.8346 127.013 54.4802 124.102 56.3489C124.041 56.3121 123.965 56.2778 123.906 56.2434C122.342 57.2121 121.498 58.2421 121.498 59.3089C121.498 59.7724 121.672 60.2261 121.979 60.6724L128.595 131.303C128.595 136.998 149.49 146.157 175.266 146.157C175.335 146.157 175.404 146.155 175.472 146.155C175.541 146.155 175.61 146.157 175.678 146.157C201.453 146.157 222.35 137 222.35 131.303L229.094 59.3089C229.094 57.7173 227.166 56.214 223.806 54.8701C223.463 53.1755 222.668 51.6158 221.499 50.3504L222.737 45.1268C227.353 43.8369 231.166 42.3066 233.893 40.5458C233.898 40.5433 233.903 40.5409 233.908 40.536L226.992 144.301ZM234.347 34.02L234.344 34.0592C234.342 34.2162 234.256 34.3805 234.207 34.5423C234.141 34.7434 234.079 34.947 233.945 35.153C233.893 35.2315 233.812 35.3124 233.751 35.3933C233.557 35.6459 233.339 35.8985 233.047 36.1536C232.976 36.2149 232.885 36.2762 232.809 36.3375C232.478 36.6072 232.113 36.8795 231.676 37.1517C231.556 37.2252 231.411 37.2988 231.284 37.3748C230.847 37.6299 230.386 37.8874 229.859 38.1449C229.626 38.2577 229.356 38.3681 229.106 38.4809C228.628 38.6967 228.147 38.9125 227.605 39.1258C227.188 39.2901 226.722 39.452 226.271 39.6139C225.827 39.7733 225.4 39.9327 224.925 40.0896C224.591 40.2 224.209 40.3054 223.858 40.4133L226.661 28.5953C231.605 30.4174 234.332 32.345 234.347 34.02Z" fill="#111111"/>
</svg>